<svg width="11" height="18" xmlns="http://www.w3.org/2000/svg"><path d="M7.77 3.051c-.113.147-.359.487-.359.487-.095.13-.56.858-.729 1.152-.023.04-.896 1.505-.962 1.64a1.095 1.095 0 0 0-.105.367c-.037.42-.086.904-.115 1.384.877.065 2.789-.003 2.841-.01.033-.004.209-.015.265-.02.105-.01 1.15-.09 1.494-.31a.202.202 0 0 1 .17-.027c.098.029.086.1.058.146-.058.097-.19.1-.285.127-1.349.392-2.92.34-4.545.307-.133 1.63-.2 3.3-.444 5.01-.018.13-.037.291-.057.422-.09.577-.151.796-.275 1.19-.267.85-.605 1.579-1.232 2.033-.124.076-.141.058-.178.026-.026-.025-.004-.086.034-.111 1.024-.787 1.411-2.642 1.497-3.339.006-.045.165-1.405.222-2.071.027-.315.056-.615.074-.91.043-.715.116-1.5.135-2.252-1.245-.067-2.5-.09-3.75-.02-.165.01-.363.046-.517-.042-.044-.203.187-.161.38-.169.133-.005.274-.01.412-.01.33-.003.598-.02.856-.022.903-.006 1.826.018 2.643.053.041-.556.09-1.106.137-1.617.019-.204-.035-.353-.116-.528-.32-.694-.732-1.436-1.078-2.082A20.402 20.402 0 0 0 3.025 1.91c-.055-.08-.166-.225-.169-.275-.007-.132.077-.128.127-.126.105.002.29.32.36.433.25.404.504.802.74 1.215.092.163.19.342.285.508.345-.538.791-1.1 1.141-1.713.048-.084.112-.181.18-.296.054-.092.152-.236.148-.317-.005-.076-.136-.246-.064-.306.016-.022.102-.048.138-.015.104.094.33.528.557.98.254.505.496.983.728 1.435C7.92 2.52 8.36 1.949 8.511 1.72c.058-.09.13-.226.209-.255.165-.06.149.099.118.16-.054.108-.16.258-.222.338L7.771 3.05zm-3.255.873c.356.64.673 1.353 1.034 1.989.08.162.07.12.129.013.126-.228.27-.465.412-.676.037-.056.074-.113.106-.17.163-.286.354-.573.518-.845.034-.057.13-.21.148-.243.042-.076.12-.199.14-.262.042-.133-.029-.195-.088-.309l-.222-.433a69.04 69.04 0 0 1-.45-.912c-.032-.065-.247-.48-.264-.476-.44.82-1.004 1.515-1.463 2.324z" stroke="#000" stroke-width=".3" fill="#000" fill-rule="nonzero"/></svg>