<svg xmlns="http://www.w3.org/2000/svg">
	<symbol id="arrow-right" viewBox="0 0 24 24">
		<title>Right arrow</title>
		<desc>An arrow pointing to the right</desc>
		<g fill="none" stroke="currentColor" stroke-width="1" stroke-linecap="round" stroke-linejoin="round">
			<line x1="4" y1="12" x2="20" y2="12"/>
			<polyline points="14 6 20 12 14 18"/>
		</g>
	</symbol>
	<symbol id="arrow-left" viewBox="0 0 24 24">
		<title>Left arrow</title>
		<desc>An arrow pointing to the left</desc>
		<g fill="none" stroke="currentColor" stroke-width="1" stroke-linecap="round" stroke-linejoin="round">
			<line x1="20" y1="12" x2="4" y2="12"/>
			<polyline points="10 18 4 12 10 6"/>
		</g>
	</symbol>
	<symbol id="cross" viewBox="0 0 24 24">
		<title>Cross</title>
		<desc>A cross or close icon</desc>
		<g fill="none" stroke="currentColor" stroke-width="1" stroke-linecap="round" stroke-linejoin="round">
			<line x1="18" y1="6" x2="6" y2="18"/>
			<line x1="6" y1="6" x2="18" y2="18"/>
		</g>
	</symbol>
	<symbol id="grid" viewBox="0 0 24 24">
		<title>Grid</title>
		<desc>A grid layout icon</desc>
		<g fill="none" stroke="currentColor" stroke-width="1" stroke-linecap="round" stroke-linejoin="round">
			<rect x="3" y="2" width="7" height="7"/>
			<rect x="14" y="2" width="7" height="7"/>
			<rect x="14" y="13" width="7" height="7"/>
			<rect x="3" y="13" width="7" height="7"/>
		</g>
	</symbol>
	<symbol id="stacked" viewBox="0 0 24 24">
		<title>Stacked</title>
		<desc>A stacked layout icon</desc>
		<g fill="none" stroke="currentColor" stroke-width="1" stroke-linecap="round" stroke-linejoin="round">
			<rect x="3" y="2" width="18" height="7"/>
			<rect x="3" y="13" width="18" height="7"/>
		</g>
	</symbol>
	<symbol id="chevrons-right"	viewBox="0 0 24 24">
		<title>Chevrons right</title>
		<desc>Chevrons pointing to the right</desc>
		<g fill="none" stroke="currentColor" stroke-width="1" stroke-linecap="round" stroke-linejoin="round">
			<polyline points="13 16 18 11 13 6" />
			<polyline points="6 16 11 11 6 6" />
		</g>
	</symbol>


</svg>
