<?xml version="1.0" encoding="utf-8"?>
<!-- Generator: Adobe Illustrator 15.1.0, SVG Export Plug-In . SVG Version: 6.00 Build 0)  -->
<!DOCTYPE svg PUBLIC "-//W3C//DTD SVG 1.1 Tiny//EN" "http://www.w3.org/Graphics/SVG/1.1/DTD/svg11-tiny.dtd">
<svg version="1.1" baseProfile="tiny" id="Layer_1" xmlns="http://www.w3.org/2000/svg" xmlns:xlink="http://www.w3.org/1999/xlink"
	 x="0px" y="0px" width="212.26px" height="363.341px" viewBox="0 0 212.26 363.341" overflow="inherit" xml:space="preserve">
<path fill-rule="evenodd" d="M153.725,46.534c-2.582,3.32-8.16,11.04-8.16,11.04c-2.166,2.942-12.71,19.487-16.56,26.16
	c-0.533,0.924-20.353,34.185-21.853,37.269c-0.583,1.197-1.271,2.912-1.586,4.098c-0.416,1.566-0.685,2.916-0.801,4.234
	c-0.84,9.515-1.937,20.522-2.595,31.413c19.907,1.477,63.322-0.058,64.515-0.212c0.738-0.096,4.738-0.355,6-0.48
	c2.389-0.236,26.135-2.041,33.939-7.016c1.295-0.807,2.566-0.994,3.855-0.621c2.238,0.647,1.967,2.287,1.324,3.316
	c-1.316,2.198-4.314,2.251-6.48,2.881c-30.629,8.906-66.31,7.707-103.199,6.96c-3.018,37.021-4.53,74.953-10.08,113.761
	c-0.426,2.979-0.852,6.633-1.312,9.602c-2.033,13.102-3.427,18.07-6.232,27.004c-6.066,19.318-13.75,35.875-27.975,46.193
	c-2.834,1.717-3.209,1.301-4.042,0.592c-0.604-0.582-0.109-1.967,0.771-2.529c23.25-17.877,32.042-60.002,33.992-75.822
	c0.125-1.012,3.739-31.914,5.04-47.039c0.614-7.137,1.28-13.963,1.68-20.641c0.974-16.255,2.634-34.073,3.063-51.149
	c-28.263-1.53-56.76-2.053-85.143-0.451c-3.76,0.211-8.259,1.043-11.76-0.961c-1.003-4.612,4.241-3.669,8.64-3.84
	c3.006-0.117,6.211-0.211,9.36-0.24c7.472-0.066,13.581-0.436,19.44-0.479c20.487-0.153,41.458,0.411,60,1.2
	c0.939-12.632,2.069-25.13,3.12-36.721c0.421-4.645-0.798-8.01-2.64-12c-7.277-15.764-16.609-32.615-24.48-47.28
	c-8.07-15.035-17.693-29.87-27.6-44.16c-1.264-1.824-3.774-5.106-3.84-6.24c-0.174-3.014,1.744-2.907,2.88-2.88
	c2.385,0.057,6.563,7.263,8.16,9.84c5.693,9.183,11.453,18.216,16.8,27.6c2.113,3.708,4.335,7.751,6.48,11.52
	c7.84-12.207,17.973-24.972,25.92-38.88c1.09-1.908,2.544-4.128,4.08-6.72c1.241-2.095,3.464-5.37,3.36-7.2
	c-0.099-1.742-3.088-5.606-1.44-6.96c0.355-0.496,2.304-1.083,3.118-0.344c2.363,2.146,7.498,12.002,12.655,22.26
	c8.646,17.198,16.303,33.209,16.542,32.583c-0.387,1.019,24.668-31.078,29.846-38.9c1.338-2.021,2.943-5.118,4.752-5.784
	c3.75-1.382,3.381,2.246,2.688,3.624c-1.234,2.453-3.652,5.856-5.039,7.68 M79.794,66.351c8.088,14.552,15.284,30.722,23.479,45.166
	c1.812,3.688,1.583,2.708,2.93,0.297c2.857-5.175,6.134-10.554,9.36-15.359c0.845-1.257,1.672-2.566,2.4-3.84
	c3.717-6.504,8.043-13.032,11.76-19.2c0.785-1.303,2.949-4.785,3.36-5.52c0.969-1.734,2.73-4.519,3.189-5.961
	c0.957-3.01-0.65-4.417-1.99-6.999c-1.888-3.639-3.374-6.532-5.04-9.84c-3.504-6.959-7.114-14.253-10.247-20.718
	c-0.711-1.467-5.599-10.875-5.986-10.808C103.01,32.207,90.211,47.976,79.794,66.351z"/>
</svg>
